<svg viewBox="11 11 79 79"><g class="icon"><path d="M83.2,38.4H83c-2.1-15.6-13.2-24.9-26.5-27v-0.1c0-0.6-0.5-1.1-1.1-1.1H44.7c-0.6,0-1.1,0.5-1.1,1.1v0.1  c-13.3,2-24.5,11.4-26.6,27h-0.2c-0.6,0-1.1,0.5-1.1,1.1v9.9c0,0.6,0.5,1.1,1.1,1.1h0.2C19.7,70.2,33.4,89.8,50,89.8  c16.6,0,30.3-19.6,32.9-39.4h0.3c0.6,0,1.1-0.5,1.1-1.1v-9.9C84.2,38.9,83.8,38.4,83.2,38.4z M49.7,21.4c-1.1-0.1-1.9-1-2-2  c-0.2-1.6,1.1-2.9,2.7-2.7c1.1,0.1,1.9,1,2,2C52.6,20.2,51.3,21.6,49.7,21.4z M68.2,74.7C62.8,81.6,56.3,85.3,50,85.3  c-6.3,0-12.8-3.8-18.2-10.6c-5.2-6.6-8.9-15.4-10.2-24.3h5.2c0.6,0,1.1-0.5,1.1-1.1v-9.9c0-0.6-0.5-1.1-1.1-1.1h-5.2  c0.9-6.1,3.6-11.4,7.6-15.4c3.8-3.7,8.8-6.1,14.4-7.1v6c0,0.6,0.5,1.1,1.1,1.1h10.6c0.6,0,1.1-0.5,1.1-1.1v-6  c5.6,1,10.5,3.4,14.3,7.1c4.1,3.9,6.7,9.2,7.6,15.4h-5.2c-0.6,0-1.1,0.5-1.1,1.1v9.9c0,0.6,0.5,1.1,1.1,1.1h5.1  C77.1,59.3,73.4,68.1,68.2,74.7z M21.8,44.1c0.1-1,0.9-1.8,1.9-1.9c1.5-0.2,2.7,1,2.5,2.5c-0.1,1-0.9,1.8-1.9,1.9  C22.9,46.8,21.6,45.6,21.8,44.1z M78.2,44.7c-0.1,1-0.9,1.8-1.9,1.9c-1.5,0.2-2.7-1-2.5-2.5c0.1-1,0.9-1.8,1.9-1.9  C77.1,42,78.4,43.2,78.2,44.7z M54.4,66.5c1.5-0.2,2.8,1.1,2.6,2.6c-0.1,1.1-1,1.9-2,2c-1.5,0.2-2.8-1.1-2.6-2.6  C52.5,67.5,53.4,66.7,54.4,66.5z M45,66.5c1.5-0.2,2.8,1.1,2.6,2.6c-0.1,1.1-1,1.9-2,2c-1.5,0.2-2.8-1.1-2.6-2.6  C43.1,67.5,43.9,66.7,45,66.5z M54.4,74.6c1.5-0.2,2.8,1.1,2.6,2.6c-0.1,1.1-1,1.9-2,2c-1.5,0.2-2.8-1.1-2.6-2.6  C52.5,75.6,53.4,74.7,54.4,74.6z M45,74.6c1.5-0.2,2.8,1.1,2.6,2.6c-0.1,1.1-1,1.9-2,2c-1.5,0.2-2.8-1.1-2.6-2.6  C43.1,75.6,43.9,74.7,45,74.6z M51.8,59.9c-0.7,0-1.3-0.6-1.3-1.3c0-0.7,0.6-1.3,1.3-1.3c0.7,0,1.3,0.6,1.3,1.3  C53,59.3,52.5,59.9,51.8,59.9z M48.2,59.9c-0.7,0-1.3-0.6-1.3-1.3c0-0.7,0.6-1.3,1.3-1.3c0.7,0,1.3,0.6,1.3,1.3  C49.5,59.3,48.9,59.9,48.2,59.9z M39.9,50c-3.1,0-5.6-2.5-5.6-5.6s2.5-5.6,5.6-5.6c3.1,0,5.6,2.5,5.6,5.6S43,50,39.9,50z M60.1,50  c-3.1,0-5.6-2.5-5.6-5.6s2.5-5.6,5.6-5.6c3.1,0,5.6,2.5,5.6,5.6S63.2,50,60.1,50z"/><polygon points="11,13 11,11 13,11 50,48 88,11 90,11 90,13 52,50 90,88 90,90 88,90 50,52 13,90 11,90 11,88 48,50"/></g></svg>
