<svg viewBox="0 0 100 100"><path d="M12.936,38.104c0,0.735,0.36,1.231,0.845,1.486v19.822c-0.485,0.257-0.845,0.752-0.845,1.487v8.491 c0,0.736,0.36,1.23,0.845,1.487v0.731c0,2.276,1.78,4.755,3.959,5.678L44.722,88.69c2.34,0.988,4.617-0.138,4.617-2.768V41.126 c0-2.278-1.78-4.755-3.958-5.677L18.397,24.047c-2.34-0.989-4.617,0.137-4.617,2.766v1.313c-0.485,0.255-0.845,0.751-0.845,1.486 L12.936,38.104L12.936,38.104z M22.22,84.018l-4.778,2.02c-0.111,0.046-0.217,0.063-0.312,0.057 c-0.093,0.008-0.198-0.011-0.311-0.057l-5.321-2.249c-0.27-0.112-0.502-0.367-0.612-0.644c-0.042-0.068-0.068-0.159-0.068-0.268 v-8.832l0.001-0.056c0-0.026,0.001-0.053,0.004-0.076V20.036c0-0.612,0.129-1.138,0.363-1.563c0.657-1.755,2.138-3.413,3.86-4.141 l33.095-13.98c0.776-0.329,1.504-0.427,2.129-0.323c0.532-0.018,1.124,0.098,1.746,0.36L85.112,14.37 c1.696,0.718,3.158,2.337,3.831,4.065c0.245,0.432,0.384,0.972,0.384,1.601v0.101c0.004,0.081,0.006,0.161,0.006,0.24v53.632 l0.004,0.066v8.835c0,0.146-0.021,0.229-0.059,0.299c-0.104,0.28-0.343,0.549-0.62,0.665l-5.321,2.249 c-0.11,0.048-0.215,0.063-0.31,0.057c-0.096,0.008-0.198-0.009-0.312-0.057l-4.886-2.062l-21.29,8.993v3.664 c0,0.146-0.021,0.232-0.06,0.299c-0.104,0.283-0.343,0.55-0.619,0.668l-5.32,2.246c-0.113,0.048-0.218,0.066-0.312,0.056 c-0.093,0.011-0.199-0.008-0.311-0.056l-5.32-2.246c-0.27-0.116-0.503-0.371-0.612-0.645c-0.043-0.071-0.067-0.161-0.067-0.269 v-3.588L22.22,84.018L22.22,84.018z M15.469,28.126v-1.313c0-1.174,0.807-1.829,2.27-1.211l26.982,11.403 c1.624,0.687,2.929,2.594,2.929,4.121v44.797c0,1.175-0.808,1.828-2.27,1.21L18.397,75.731c-1.624-0.688-2.928-2.594-2.928-4.121 v-0.731c0.486-0.257,0.845-0.751,0.845-1.487V60.9c0-0.735-0.359-1.23-0.845-1.487V39.591c0.486-0.255,0.845-0.751,0.845-1.486 v-8.492C16.314,28.877,15.955,28.381,15.469,28.126L15.469,28.126z M21.128,48.933c-0.066,0.013-0.132,0.027-0.2,0.045 c-2.312,0.606-3.589,3.676-2.853,6.855c0.734,3.182,3.204,5.269,5.516,4.662c0.166-0.044,0.327-0.102,0.482-0.167 c1.372,1.084,2.986,1.547,4.55,1.136c3.265-0.856,5.07-5.194,4.031-9.689c-1.039-4.492-4.527-7.441-7.793-6.584 C23.148,45.64,21.837,47.047,21.128,48.933L21.128,48.933z M34.833,66.145c0,2.817,4.223,2.817,4.223,0v-8.003 c0-0.476,0.225-1.072,0.599-1.615c0.631,0.433,1.35,0.604,2.048,0.421c1.604-0.421,2.492-2.554,1.981-4.763 c-0.51-2.209-2.226-3.657-3.83-3.237c-1.292,0.339-2.117,1.783-2.126,3.486c-1.704,1.41-2.896,3.579-2.896,5.708L34.833,66.145 L34.833,66.145z M19.315,55.46c-0.511-2.211,0.376-4.342,1.981-4.762c1.604-0.42,3.32,1.028,3.831,3.235 c0.51,2.21-0.376,4.341-1.981,4.762S19.827,57.667,19.315,55.46L19.315,55.46z"/></svg>
