<svg viewbox="2 1 85 85"><g class="icon"><path d="M26,73.1l5-5V40.5c-5.1,1.6-8.9,6.5-8.9,12.1v20.9c0,2.3,0.6,4.4,1.7,6.2c0-0.3-0.1-0.6-0.1-1C23.7,76.7,24.5,74.6,26,73.1   z"/><path d="M59,40.5v37.7c0,2.5-2,4.5-4.5,4.5H39.1l-1.7,1.7c-0.8,0.8-1.7,1.4-2.8,1.8c0.1,0,0.1,0,0.2,0h20.3c7,0,12.7-5.7,12.7-12.7   V52.6C67.9,47,64.1,42.1,59,40.5z"/><path d="M35.5,28.4h18.9c1.8,0,3.3,1.1,4.1,2.6c2.8-3.2,4.5-7.4,4.5-11.9C63.1,9.1,55,1,45,1S26.9,9.1,26.9,19.1   c0,4.6,1.7,8.8,4.5,11.9C32.2,29.5,33.7,28.4,35.5,28.4z"/><path d="M45,80.8c-1.1,0-1.9-0.8-2.1-1.8L40,81.9h14.5c2,0,3.7-1.6,3.7-3.7v-38v-7.3c0-0.4-0.1-0.9-0.2-1.3   c-0.5-1.4-1.9-2.4-3.4-2.4H35.5c-1.6,0-2.9,1-3.4,2.4c-0.1,0.4-0.2,0.8-0.2,1.3v7.3v27.1l0.7-0.7V40.1v-4.6h4.9h14.9h4.9v4.6v35.6   H46.1c-0.2,0.3-0.4,0.5-0.7,0.8l-0.1,0.1c1,0.1,1.8,1,1.8,2.1C47.1,79.8,46.2,80.8,45,80.8z M46.8,32.5v0.3h-3.5v-0.3v-0.3h3.5   V32.5z"/><path d="M48.6,70.8c2.5,0,4.6-2.1,4.6-4.6v-7.5c0-2.5-2.1-4.6-4.6-4.6h-7.3c-2.5,0-4.6,2.1-4.6,4.6v4.5c0.9-0.4,1.9-0.6,2.9-0.6   c2.1,0,4.2,0.8,5.7,2.3c1.5,1.5,2.3,3.5,2.3,5.7c0,0,0,0,0,0.1H48.6z"/><circle cx="45" cy="46.8" r="6.5"/><path d="M45,75.7c1.3-1.4,1.9-3.1,1.9-4.8c0-1.9-0.7-3.7-2.1-5.1l0,0c-1.4-1.4-3.2-2.1-5.1-2.1c-1,0-2,0.2-2.9,0.6   c-0.8,0.3-1.5,0.8-2.1,1.5l-8,8c-2.2,2.2-2.7,5.5-1.4,8.1c0.3,0.7,0.8,1.4,1.4,2c1.4,1.4,3.2,2.1,5.1,2.1c0.1,0,0.2,0,0.3,0   c1.7-0.1,3.4-0.8,4.8-2.1C36.8,83.9,44.9,75.7,45,75.7z"/></g></svg>
